<svg width="37.516724" height="37.575195" viewBox="0 0 37.5167 37.5752" fill="none" xmlns="http://www.w3.org/2000/svg" xmlns:xlink="http://www.w3.org/1999/xlink">
	<desc>
			Created with Pixso.
	</desc>
	<defs/>
	<path id="Vector" d="M18.74 9.1C16.18 9.1 13.73 10.12 11.93 11.93C10.12 13.73 9.11 16.18 9.11 18.74C9.11 21.29 10.12 23.74 11.93 25.55C13.73 27.36 16.18 28.37 18.74 28.37C21.29 28.37 23.74 27.36 25.55 25.55C27.36 23.74 28.37 21.29 28.37 18.74C28.37 16.18 27.36 13.73 25.55 11.93C23.74 10.12 21.29 9.1 18.74 9.1ZM18.74 24.99C17.08 24.99 15.49 24.33 14.31 23.16C13.14 21.99 12.48 20.39 12.48 18.73C12.48 17.08 13.14 15.48 14.31 14.31C15.49 13.14 17.08 12.48 18.74 12.48C20.4 12.48 21.99 13.14 23.16 14.31C24.34 15.48 25 17.08 25 18.73C25 20.39 24.34 21.99 23.16 23.16C21.99 24.33 20.4 24.99 18.74 24.99Z" fill="#D6258F" fill-opacity="1.000000" fill-rule="nonzero"/>
	<path id="Vector" d="M31 8.75C31 9.99 29.99 10.99 28.75 10.99C27.51 10.99 26.51 9.99 26.51 8.75C26.51 7.51 27.51 6.5 28.75 6.5C29.99 6.5 31 7.51 31 8.75Z" fill="#D6258F" fill-opacity="1.000000" fill-rule="evenodd"/>
	<path id="Vector" d="M36.52 6.47C36.04 5.22 35.3 4.09 34.35 3.14C33.41 2.2 32.28 1.46 31.03 0.98C29.57 0.44 28.03 0.14 26.48 0.11C24.47 0.02 23.84 0 18.75 0C13.66 0 13.01 0 11.02 0.11C9.46 0.14 7.93 0.43 6.47 0.98C5.22 1.46 4.09 2.2 3.15 3.14C2.2 4.09 1.47 5.22 0.98 6.47C0.44 7.92 0.14 9.46 0.11 11.02C0.02 13.02 0 13.66 0 18.75C0 23.84 0 24.48 0.11 26.48C0.14 28.04 0.44 29.57 0.98 31.03C1.47 32.28 2.21 33.41 3.15 34.35C4.09 35.3 5.23 36.04 6.47 36.52C7.93 37.09 9.46 37.4 11.02 37.46C13.03 37.54 13.67 37.57 18.75 37.57C23.84 37.57 24.49 37.57 26.48 37.46C28.04 37.42 29.58 37.13 31.04 36.58C32.28 36.1 33.41 35.36 34.36 34.42C35.3 33.47 36.04 32.34 36.52 31.1C37.07 29.64 37.36 28.1 37.4 26.54C37.48 24.54 37.51 23.9 37.51 18.81C37.51 13.72 37.51 13.08 37.4 11.08C37.37 9.51 37.07 7.94 36.52 6.47ZM33.98 26.32C33.97 27.52 33.75 28.71 33.33 29.84C33.02 30.65 32.54 31.39 31.93 32C31.31 32.61 30.58 33.09 29.77 33.41C28.65 33.82 27.47 34.04 26.29 34.05C24.31 34.14 23.75 34.17 18.67 34.17C13.6 34.17 13.08 34.17 11.06 34.05C9.87 34.04 8.7 33.82 7.58 33.41C6.77 33.1 6.03 32.62 5.41 32C4.8 31.39 4.32 30.65 4 29.84C3.59 28.73 3.37 27.55 3.35 26.36C3.26 24.38 3.24 23.83 3.24 18.75C3.24 13.67 3.24 13.16 3.35 11.14C3.37 9.94 3.59 8.75 4 7.62C4.64 5.98 5.94 4.68 7.58 4.06C8.7 3.64 9.87 3.42 11.06 3.41C13.04 3.32 13.6 3.29 18.67 3.29C23.75 3.29 24.27 3.29 26.29 3.41C27.48 3.42 28.65 3.64 29.77 4.06C30.58 4.37 31.31 4.85 31.93 5.46C32.54 6.08 33.02 6.81 33.33 7.62C33.74 8.74 33.96 9.91 33.98 11.1C34.07 13.08 34.09 13.64 34.09 18.71C34.09 23.79 34.09 24.33 34 26.33L33.98 26.33L33.98 26.32Z" fill="#D6258F" fill-opacity="1.000000" fill-rule="nonzero"/>
</svg>
