<svg width="19.500000" height="19.500000" viewBox="0 0 19.5 19.5" fill="none" xmlns="http://www.w3.org/2000/svg" xmlns:xlink="http://www.w3.org/1999/xlink">
	<desc>
			Created with Pixso.
	</desc>
	<defs/>
	<path id="Vector" d="M9.75 0C7.82 0 5.93 0.57 4.33 1.64C2.72 2.71 1.48 4.23 0.74 6.01C0 7.8 -0.19 9.76 0.18 11.65C0.56 13.54 1.49 15.28 2.85 16.64C4.21 18 5.95 18.93 7.84 19.31C9.73 19.68 11.69 19.49 13.48 18.75C15.26 18.01 16.78 16.77 17.85 15.16C18.92 13.56 19.5 11.67 19.5 9.75C19.49 7.16 18.46 4.68 16.64 2.85C14.81 1.03 12.33 0 9.75 0ZM9.75 18C8.11 18 6.52 17.51 5.16 16.6C3.8 15.7 2.75 14.41 2.12 12.9C1.5 11.39 1.34 9.74 1.65 8.14C1.97 6.54 2.76 5.07 3.91 3.91C5.07 2.76 6.54 1.97 8.14 1.65C9.74 1.33 11.39 1.5 12.9 2.12C14.41 2.75 15.7 3.8 16.6 5.16C17.51 6.52 18 8.11 18 9.75C17.99 11.93 17.12 14.03 15.58 15.58C14.03 17.12 11.93 17.99 9.75 18ZM15.75 9.75C15.75 9.94 15.67 10.13 15.53 10.28C15.38 10.42 15.19 10.5 15 10.5L9.75 10.5C9.55 10.5 9.36 10.42 9.21 10.28C9.07 10.13 9 9.94 9 9.75L9 4.5C9 4.3 9.07 4.11 9.21 3.96C9.36 3.82 9.55 3.75 9.75 3.75C9.94 3.75 10.13 3.82 10.28 3.96C10.42 4.11 10.5 4.3 10.5 4.5L10.5 9L15 9C15.19 9 15.38 9.07 15.53 9.21C15.67 9.36 15.75 9.55 15.75 9.75Z" fill="#FFF9F4" fill-opacity="1.000000" fill-rule="nonzero"/>
</svg>
