<svg width="16.500000" height="21.000000" viewBox="0 0 16.5 21" fill="none" xmlns="http://www.w3.org/2000/svg" xmlns:xlink="http://www.w3.org/1999/xlink">
	<desc>
			Created with Pixso.
	</desc>
	<defs/>
	<path id="Vector" d="M8.25 12C7.5 12 6.78 11.78 6.16 11.36C5.55 10.95 5.06 10.37 4.78 9.68C4.5 9 4.42 8.24 4.57 7.51C4.71 6.79 5.07 6.12 5.59 5.59C6.12 5.07 6.79 4.71 7.51 4.57C8.24 4.42 8.99 4.5 9.68 4.78C10.37 5.06 10.95 5.54 11.36 6.16C11.78 6.78 12 7.5 12 8.25C11.99 9.24 11.6 10.19 10.9 10.9C10.19 11.6 9.24 11.99 8.25 12ZM8.25 6C7.8 6 7.36 6.13 7 6.37C6.62 6.62 6.34 6.97 6.17 7.38C6 7.79 5.95 8.25 6.04 8.68C6.13 9.12 6.34 9.52 6.65 9.84C6.97 10.15 7.37 10.37 7.81 10.45C8.24 10.54 8.69 10.49 9.11 10.32C9.52 10.15 9.87 9.87 10.12 9.5C10.36 9.12 10.5 8.69 10.5 8.25C10.49 7.65 10.26 7.08 9.84 6.66C9.41 6.23 8.84 6 8.25 6Z" fill="#FFF9F4" fill-opacity="1.000000" fill-rule="nonzero"/>
	<path id="Vector" d="M8.25 21L1.92 13.53C1.83 13.42 1.74 13.31 1.66 13.2C0.58 11.77 -0.01 10.03 0 8.25C0 6.06 0.86 3.96 2.41 2.41C3.96 0.86 6.06 0 8.25 0C10.43 0 12.53 0.86 14.08 2.41C15.63 3.96 16.5 6.06 16.5 8.25C16.5 10.03 15.91 11.77 14.83 13.19L14.83 13.2C14.83 13.2 14.61 13.49 14.57 13.53L8.25 21ZM2.85 12.29C2.86 12.29 3.03 12.52 3.07 12.57L8.25 18.68L13.43 12.56C13.46 12.52 13.64 12.29 13.64 12.29C14.52 11.13 15 9.7 15 8.25C15 6.45 14.28 4.74 13.02 3.47C11.75 2.21 10.04 1.5 8.25 1.5C6.45 1.5 4.74 2.21 3.47 3.47C2.21 4.74 1.5 6.45 1.5 8.25C1.49 9.71 1.97 11.13 2.85 12.29Z" fill="#FFF9F4" fill-opacity="1.000000" fill-rule="nonzero"/>
</svg>
