<svg width="41.746826" height="24.795898" viewBox="0 0 41.7468 24.7959" fill="none" xmlns="http://www.w3.org/2000/svg" xmlns:xlink="http://www.w3.org/1999/xlink">
	<desc>
			Created with Pixso.
	</desc>
	<defs/>
	<path id="Vector" d="M40.78 1.67C41.08 0.71 40.78 0 39.41 0L34.84 0C33.67 0 33.14 0.61 32.85 1.28C32.85 1.28 30.53 6.95 27.24 10.62C26.17 11.69 25.69 12.03 25.11 12.03C24.82 12.03 24.4 11.69 24.4 10.72L24.4 1.67C24.4 0.51 24.06 0 23.1 0L15.92 0C15.19 0 14.75 0.53 14.75 1.04C14.75 2.14 16.4 2.4 16.57 5.5L16.57 12.22C16.57 13.7 16.3 13.97 15.72 13.97C14.17 13.97 10.41 8.28 8.17 1.77C7.73 0.51 7.3 0 6.13 0L1.56 0C0.26 0 0 0.61 0 1.29C0 2.5 1.54 8.5 7.21 16.43C10.98 21.85 16.29 24.79 21.14 24.79C24.04 24.79 24.4 24.14 24.4 23.01L24.4 18.92C24.4 17.61 24.67 17.35 25.59 17.35C26.27 17.35 27.43 17.69 30.14 20.3C33.24 23.4 33.75 24.79 35.49 24.79L40.06 24.79C41.36 24.79 42.01 24.14 41.64 22.85C41.23 21.57 39.75 19.7 37.78 17.5C36.72 16.24 35.12 14.88 34.64 14.21C33.96 13.33 34.16 12.95 34.64 12.17C34.64 12.18 40.21 4.34 40.78 1.67Z" fill="#D6258F" fill-opacity="1.000000" fill-rule="nonzero"/>
</svg>
